<?xml version="1.0" encoding="utf-8"?>
<svg version="1.1" xmlns="http://www.w3.org/2000/svg" viewBox="0 0 988 222.55">
<g>
	<path fill="#FF0000" d="M988,222.55H0V0h988V222.55z"/>
	<path fill="#FFFFFF" d="M841.757,147.314c-16.461,0-30.31-11.064-34.572-26.182h91.383l12.519-19.578H807.074
		c4.324-15.154,18.148-26.132,34.683-26.132h62.811l12.556-19.714h-76.857c-30.666,0-55.505,24.889-55.505,55.555
		c0,30.74,24.839,55.641,55.505,55.641h65.99l12.53-19.59H841.757z M580.286,166.904c-30.704,0-55.505-24.9-55.505-55.641
		c0-30.666,24.801-55.555,55.505-55.555h76.795L644.44,75.423h-62.676c-19.898,0-36.002,16.066-36.002,35.841
		c0,19.91,16.104,36.051,36.002,36.051h77.128l-12.617,19.59H580.286z M174.354,147.314c19.874,0,36.062-16.141,36.062-36.051
		c0-19.774-16.189-35.841-36.062-35.841h-61.666c-19.836,0-35.989,16.066-35.989,35.841c0,19.91,16.152,36.051,35.989,36.051
		H174.354z M111.248,166.904c-30.679,0-55.591-24.9-55.591-55.641c0-30.666,24.913-55.555,55.591-55.555h64.635
		c30.715,0,55.505,24.889,55.505,55.555c0,30.74-24.79,55.678-55.505,55.678L111.248,166.904z M336.335,130.928
		c20.859,0,37.591-16.904,37.591-37.591c0-20.724-16.731-37.628-37.591-37.628h-93.514v111.195h21.352V75.423h70.733
		c9.832,0,17.963,7.972,17.963,17.914c0,9.918-8.131,17.927-17.963,17.927H274.67l63.797,55.641h31.085l-42.938-35.977H336.335z
		 M689.928,147.314V55.709h-21.327v100.6c0,2.735,1.035,5.384,3.081,7.367c2.155,2.046,4.903,3.229,7.835,3.229h97.408l12.69-19.59
		H689.928z M428.235,127.65h57.144L455.23,79.144l-55.369,87.761l-25.196,0.037l67.32-105.479c2.957-4.201,7.787-6.899,13.245-6.899
		c5.212,0,10.091,2.6,12.888,6.765l67.665,105.613l-25.355-0.037l-11.779-19.627h-57.797L428.235,127.65z"/>
	<path fill="#FFFFFF" d="M938.175,66.554c0.862,0,1.75-0.11,2.305-0.924c0.196-0.32,0.32-0.689,0.32-1.195
		c0-0.751-0.419-1.441-1.011-1.639c-0.604-0.332-1.27-0.332-2.6-0.332h-0.862v4.09H938.175z M937.189,60.246
		c1.996,0,2.735,0,3.61,0.332c2.538,0.875,2.809,3.105,2.809,3.906c0,0.147-0.074,0.653-0.147,1.146
		c-0.123,0.579-0.506,1.676-1.713,2.415c-0.16,0.086-0.259,0.209-0.665,0.369l3.265,5.742h-3.191l-2.771-5.359h-2.058v5.359h-2.624
		v-13.91H937.189z M938.385,80.106c6.838,0,12.518-5.643,12.518-12.456c0-6.948-5.68-12.493-12.518-12.493
		c-6.998,0-12.519,5.545-12.519,12.493C925.866,74.464,931.387,80.106,938.385,80.106 M928.553,67.515
		c0-5.322,4.337-9.782,9.832-9.782c5.408,0,9.832,4.46,9.832,9.782c0,5.569-4.424,9.956-9.832,9.956
		C932.89,77.471,928.553,73.084,928.553,67.515"/>
</g>
</svg>

