<?xml version="1.0" encoding="utf-8"?>
<svg version="1.1" xmlns="http://www.w3.org/2000/svg" viewBox="0 0 500 500" width="500" height="500" preserveAspectRatio="xMinYMin meet">
<g>
	<path fill="#E1E1E1" d="M423.978,397.635c-25.051-0.627-44.452,1.882-60.729,8.772c-4.697,1.875-12.195,1.875-12.849,7.826
		c2.527,2.502,2.828,6.564,5.036,10.026c3.749,6.258,10.308,14.697,16.271,19.087c6.564,5.017,13.149,10.008,20.047,14.384
		c12.195,7.552,25.979,11.908,37.854,19.427c6.905,4.377,13.777,10.007,20.688,14.717c3.43,2.502,5.604,6.578,10.001,8.126v-0.947
		c-2.201-2.809-2.822-6.878-4.997-10.033c-3.129-3.109-6.271-5.944-9.4-9.054c-9.079-12.209-20.367-22.843-32.549-31.615
		c-10.027-6.898-31.949-16.298-36.006-27.84c0,0-0.326-0.34-0.633-0.641c6.885-0.641,15.043-3.148,21.602-5.049
		c10.635-2.81,20.334-2.176,31.295-4.984c5.018-1.254,10.027-2.835,15.057-4.377v-2.834c-5.67-5.618-9.713-13.144-15.67-18.467
		c-15.951-13.77-33.504-27.22-51.656-38.507c-9.72-6.271-22.242-10.314-32.576-15.651c-3.736-1.881-9.994-2.809-12.195-5.957
		c-5.637-6.885-8.772-15.951-12.842-24.11c-9.061-17.199-17.853-36.286-25.665-54.475c-5.631-12.199-9.073-24.401-15.965-35.679
		c-32.262-53.23-67.307-85.457-121.158-117.082c-11.581-6.588-25.357-9.396-40.055-12.842c-7.845-0.33-15.664-0.937-23.489-1.245
		c-5.018-2.201-10.034-8.155-14.404-10.971C61.137,56.396,15.137,31.982,1.975,64.225c-8.452,20.36,12.522,40.385,19.728,50.722
		c5.317,7.188,12.215,15.344,15.951,23.47c2.195,5.323,2.822,10.971,5.023,16.595c5.004,13.773,9.693,29.117,16.284,41.959
		c3.437,6.575,7.186,13.473,11.562,19.391c2.527,3.465,6.897,5.01,7.838,10.664c-4.363,6.254-4.703,15.645-7.205,23.477
		c-11.268,35.381-6.885,79.205,9.08,105.184c4.997,7.825,16.905,25.051,32.876,18.46c14.084-5.625,10.955-23.471,15.024-39.115
		c0.934-3.775,0.307-6.271,2.182-8.766v0.634c4.377,8.753,8.772,17.186,12.842,25.979c9.714,15.324,26.605,31.302,40.709,41.937
		c7.492,5.656,13.443,15.337,22.836,18.799v-0.953h-0.614c-1.881-2.81-4.689-4.063-7.198-6.252
		c-5.637-5.637-11.882-12.528-16.291-18.793c-13.143-17.52-24.737-36.939-35.045-56.979c-5.023-9.727-9.394-20.36-13.476-30.055
		c-1.868-3.743-1.868-9.394-5.011-11.268c-4.709,6.878-11.568,12.835-15.017,21.262c-5.951,13.482-6.565,30.067-8.773,47.293
		c-1.254,0.327-0.62,0-1.254,0.62c-10.001-2.502-13.449-12.828-17.212-21.568c-9.387-22.256-10.975-57.947-2.815-83.612
		c2.175-6.564,11.595-27.226,7.825-33.486c-1.888-5.974-8.152-9.384-11.581-14.1c-4.057-5.948-8.473-13.443-11.262-20.034
		c-7.519-17.526-11.294-36.942-19.407-54.468c-3.756-8.152-10.347-16.608-15.65-24.107c-5.964-8.453-12.529-14.4-17.232-24.407
		c-1.548-3.452-3.75-9.09-1.254-12.836c0.614-2.501,1.881-3.445,4.39-4.079c4.05-3.439,15.651,0.934,19.708,2.815
		c11.588,4.684,21.301,9.089,30.988,15.651c4.39,3.139,9.086,9.086,14.71,10.664h6.585c10.014,2.172,21.294,0.607,30.694,3.439
		c16.578,5.317,31.603,13.143,45.071,21.595c40.996,25.988,74.812,62.937,97.656,107.072c3.756,7.188,5.343,13.772,8.772,21.271
		c6.577,15.37,14.724,31.021,21.288,46.032c6.564,14.717,12.849,29.728,22.248,41.956c4.678,6.558,23.477,10.007,31.923,13.456
		c6.251,2.809,15.964,5.317,21.602,8.753c10.647,6.559,21.269,14.083,31.302,21.308C407.379,383.552,423.037,391.37,423.978,397.635
		"/>
	<path fill="#E1E1E1" d="M104.66,125.581c-5.311,0-9.061,0.637-12.836,1.571v0.63h0.614c2.528,4.994,6.911,8.459,10.021,12.842
		c2.521,5.01,4.709,10,7.211,15.011c0.313-0.304,0.614-0.631,0.614-0.631c4.409-3.116,6.598-8.126,6.598-15.651
		c-1.888-2.202-2.188-4.376-3.763-6.578C111.238,129.654,107.168,128.089,104.66,125.581"/>
</g>
</svg>
